<svg width="10" height="10" viewBox="0 0 10 10" fill="none" xmlns="http://www.w3.org/2000/svg">
<path d="M3.75 5.41666C3.475 5.55416 3.24583 5.75832 3.075 6.01249C2.97917 6.15832 2.97917 6.34166 3.075 6.48749C3.24583 6.74166 3.475 6.94582 3.75 7.08332" stroke="#512FAC" stroke-width="0.5" stroke-linecap="round" stroke-linejoin="round"/>
<path d="M6.33753 5.41666C6.61253 5.55416 6.8417 5.75832 7.01253 6.01249C7.10837 6.15832 7.10837 6.34166 7.01253 6.48749C6.8417 6.74166 6.61253 6.94582 6.33753 7.08332" stroke="#512FAC" stroke-width="0.5" stroke-linecap="round" stroke-linejoin="round"/>
<path d="M3.74999 9.16668H6.24999C8.33332 9.16668 9.16666 8.33334 9.16666 6.25001V3.75001C9.16666 1.66668 8.33332 0.833344 6.24999 0.833344H3.74999C1.66666 0.833344 0.833324 1.66668 0.833324 3.75001V6.25001C0.833324 8.33334 1.66666 9.16668 3.74999 9.16668Z" stroke="#512FAC" stroke-width="0.5" stroke-linecap="round" stroke-linejoin="round"/>
<path d="M0.929203 3.33751L8.93754 3.33334" stroke="#512FAC" stroke-width="0.5" stroke-linecap="round" stroke-linejoin="round"/>
</svg>
