<svg width="10" height="10" viewBox="0 0 10 10" fill="none" xmlns="http://www.w3.org/2000/svg">
<path fill-rule="evenodd" clip-rule="evenodd" d="M1.38841 9.00032L0.585938 0H9.40379L8.60046 8.99884L4.98953 10L1.38841 9.00032Z" fill="#0071BC"/>
<path fill-rule="evenodd" clip-rule="evenodd" d="M5.00226 9.23428L7.91645 8.43258L8.59924 0.749542H5.00226V9.23428Z" fill="#29ABE2"/>
<path fill-rule="evenodd" clip-rule="evenodd" d="M2.42279 4.05623L2.51946 5.15846L5.00228 4.05623V2.95221L2.42279 4.05623Z" fill="#B3B3B3"/>
<path fill-rule="evenodd" clip-rule="evenodd" d="M7.75206 1.77371L5.00226 2.9522V4.05621L7.65725 2.87594L7.75206 1.77371Z" fill="#E6E6E6"/>
<path fill-rule="evenodd" clip-rule="evenodd" d="M5.00226 6.94017L4.99373 6.94145L3.76242 6.61078L3.68198 5.7316H2.57382L2.72847 7.46365L4.99349 8.09079L5.00226 8.08872V6.94017Z" fill="#E6E6E6"/>
<path fill-rule="evenodd" clip-rule="evenodd" d="M5.00226 4.05621V5.15845H6.35033L6.22781 6.59953L5.00226 6.94113V8.08959L7.25976 7.46244L7.55703 4.05621H5.00226Z" fill="white"/>
<path fill-rule="evenodd" clip-rule="evenodd" d="M5.00228 4.05621H2.42279L2.51946 5.15845H5.00228V4.05621Z" fill="#E6E6E6"/>
<path fill-rule="evenodd" clip-rule="evenodd" d="M5.00227 2.87594V1.77371H4.99107H2.22681L2.32462 2.87594H5.00227Z" fill="#E6E6E6"/>
<path fill-rule="evenodd" clip-rule="evenodd" d="M5.00226 1.77371V2.86212V2.87594H7.65725L7.75206 1.77371H5.00226Z" fill="white"/>
</svg>
