<svg width="12" height="12" viewBox="0 0 12 12" fill="none" xmlns="http://www.w3.org/2000/svg">
<path d="M0 6C0 2.68629 2.68629 0 6 0C9.31371 0 12 2.68629 12 6C12 9.31371 9.31371 12 6 12C2.68629 12 0 9.31371 0 6Z" fill="#080616"/>
<path fill-rule="evenodd" clip-rule="evenodd" d="M4.32969 3.70567C4.32969 4.09795 4.03441 4.41184 3.5603 4.41184H3.55161C3.09511 4.41184 2.8 4.09795 2.8 3.70567C2.8 3.3051 3.1041 3 3.56926 3C4.03441 3 4.32086 3.3051 4.32969 3.70567ZM4.24013 4.96946V9.05489H2.8804V4.96946H4.24013ZM9.14379 9.05489L9.14385 6.71243C9.14385 5.45756 8.47305 4.87353 7.57828 4.87353C6.85636 4.87353 6.53314 5.27006 6.35267 5.54824V4.96957H4.99277C5.0107 5.35293 4.99277 9.055 4.99277 9.055H6.35267V6.77336C6.35267 6.65126 6.36149 6.52946 6.39745 6.44204C6.49572 6.19811 6.71947 5.94556 7.09513 5.94556C7.58735 5.94556 7.78411 6.32018 7.78411 6.86918V9.05489H9.14379Z" fill="#FFF9F1"/>
</svg>
