<svg width="12" height="12" viewBox="0 0 12 12" fill="none" xmlns="http://www.w3.org/2000/svg">
<path d="M6 12C9.31371 12 12 9.31371 12 6C12 2.68629 9.31371 0 6 0C2.68629 0 0 2.68629 0 6C0 9.31371 2.68629 12 6 12Z" fill="#080616"/>
<path fill-rule="evenodd" clip-rule="evenodd" d="M3.2 4.29384C3.2 4.29384 5.61488 5.66325 6.0836 5.66325C6.57488 5.66325 8.9636 4.32 8.9636 4.32L8.96744 4.08C8.96744 3.81504 8.7524 3.6 8.48672 3.6H3.68048C3.41504 3.6 3.2 3.81504 3.2 4.08V4.29384ZM8.9636 5.04C8.9636 5.04 6.59744 6.32325 6.0836 6.32325C5.61488 6.32325 3.2036 5.04 3.20384 5.04L3.2 7.92C3.2 8.18496 3.41528 8.4 3.68048 8.4H8.48672C8.7524 8.4 8.96744 8.18496 8.96744 7.92L8.9636 5.04Z" fill="#FFF9F1"/>
</svg>
