<svg width="12" height="12" viewBox="0 0 12 12" fill="none" xmlns="http://www.w3.org/2000/svg">
<path d="M6 12C9.31371 12 12 9.31371 12 6C12 2.68629 9.31371 0 6 0C2.68629 0 0 2.68629 0 6C0 9.31371 2.68629 12 6 12Z" fill="white"/>
<path fill-rule="evenodd" clip-rule="evenodd" d="M3.20001 4.29385C3.20001 4.29385 5.61489 5.66326 6.08361 5.66326C6.57489 5.66326 8.96361 4.32001 8.96361 4.32001L8.96745 4.08001C8.96745 3.81505 8.75241 3.60001 8.48673 3.60001H3.68049C3.41505 3.60001 3.20001 3.81505 3.20001 4.08001V4.29385ZM8.96361 5.04001C8.96361 5.04001 6.59745 6.32326 6.08361 6.32326C5.61489 6.32326 3.20361 5.04001 3.20385 5.04001L3.20001 7.92001C3.20001 8.18497 3.41529 8.40001 3.68049 8.40001H8.48673C8.75241 8.40001 8.96745 8.18497 8.96745 7.92001L8.96361 5.04001Z" fill="#080616"/>
</svg>
