<svg width="17" height="15" viewBox="0 0 17 15" fill="none" xmlns="http://www.w3.org/2000/svg">
<path d="M8.198 4.527C8.1 4.527 8.023 4.541 7.967 4.569C7.91567 4.597 7.87833 4.66 7.855 4.758C7.83633 4.856 7.827 5.01233 7.827 5.227V5.913C7.827 6.09033 7.799 6.24433 7.743 6.375C7.69167 6.501 7.631 6.60367 7.561 6.683C7.491 6.76233 7.42567 6.823 7.365 6.865C7.41633 6.90233 7.477 6.96067 7.547 7.04C7.62167 7.11467 7.687 7.208 7.743 7.32C7.799 7.42733 7.827 7.54867 7.827 7.684V8.524C7.827 8.734 7.83633 8.888 7.855 8.986C7.87833 9.084 7.91567 9.147 7.967 9.175C8.023 9.203 8.1 9.217 8.198 9.217H8.457V10.071H7.904C7.77333 10.071 7.64267 10.0687 7.512 10.064C7.386 10.0593 7.26933 10.0337 7.162 9.987C7.05467 9.945 6.96833 9.86333 6.903 9.742C6.84233 9.62533 6.812 9.455 6.812 9.231V8.076C6.812 7.936 6.791 7.80533 6.749 7.684C6.707 7.558 6.644 7.45533 6.56 7.376C6.476 7.29667 6.371 7.257 6.245 7.257V6.445C6.371 6.44033 6.476 6.40067 6.56 6.326C6.644 6.24667 6.707 6.14633 6.749 6.025C6.791 5.899 6.812 5.766 6.812 5.626V4.52C6.812 4.296 6.84233 4.12567 6.903 4.009C6.96367 3.89233 7.04533 3.81067 7.148 3.764C7.25533 3.71733 7.37433 3.69167 7.505 3.687C7.63567 3.67767 7.76867 3.673 7.904 3.673H8.457V4.527H8.198ZM9.41857 9.217C9.51657 9.217 9.59124 9.203 9.64257 9.175C9.69857 9.147 9.7359 9.084 9.75457 8.986C9.7779 8.88333 9.78957 8.727 9.78957 8.517V7.831C9.78957 7.649 9.81524 7.495 9.86657 7.369C9.92257 7.243 9.98557 7.14033 10.0556 7.061C10.1302 6.977 10.1956 6.91633 10.2516 6.879C10.2049 6.837 10.1442 6.77867 10.0696 6.704C9.9949 6.62933 9.92957 6.53833 9.87357 6.431C9.81757 6.319 9.78957 6.19533 9.78957 6.06V5.22C9.78957 5.00533 9.7779 4.85133 9.75457 4.758C9.7359 4.66 9.69857 4.597 9.64257 4.569C9.59124 4.541 9.51657 4.527 9.41857 4.527H9.15957V3.673H9.71257C9.84324 3.673 9.97157 3.67533 10.0976 3.68C10.2282 3.68467 10.3472 3.71033 10.4546 3.757C10.5619 3.799 10.6459 3.88067 10.7066 4.002C10.7719 4.11867 10.8046 4.289 10.8046 4.513V5.668C10.8046 5.77067 10.8162 5.871 10.8396 5.969C10.8629 6.067 10.8979 6.15567 10.9446 6.235C10.9912 6.30967 11.0496 6.37033 11.1196 6.417C11.1942 6.46367 11.2782 6.487 11.3716 6.487V7.299C11.2782 7.299 11.1942 7.32233 11.1196 7.369C11.0496 7.41567 10.9912 7.47633 10.9446 7.551C10.8979 7.62567 10.8629 7.712 10.8396 7.81C10.8162 7.908 10.8046 8.01067 10.8046 8.118V9.224C10.8046 9.448 10.7742 9.61833 10.7136 9.735C10.6529 9.85167 10.5689 9.93333 10.4616 9.98C10.3589 10.0267 10.2422 10.0523 10.1116 10.057C9.9809 10.0663 9.8479 10.071 9.71257 10.071H9.15957V9.217H9.41857Z" fill="white"/>
<path d="M0 0H10L2.88462 2.77778L0 10V0Z" fill="#512FAC"/>
<path d="M17 14.039L6.60078 14.3033L13.9262 11.249L16.7337 3.72035L17 14.039Z" fill="#512FAC"/>
</svg>
