<svg width="10" height="10" viewBox="0 0 10 10" fill="none" xmlns="http://www.w3.org/2000/svg">
<g clip-path="url(#clip0_39_249)">
<path fill-rule="evenodd" clip-rule="evenodd" d="M0 0H10V10H0V0Z" fill="#F7DF1E"/>
<path fill-rule="evenodd" clip-rule="evenodd" d="M2.62938 8.35673L3.39465 7.89361C3.54228 8.15537 3.67659 8.37685 3.99873 8.37685C4.30752 8.37685 4.50221 8.25605 4.50221 7.78621V4.59097H5.44195V7.7995C5.44195 8.77283 4.87141 9.21586 4.03901 9.21586C3.28725 9.21586 2.85087 8.82651 2.62936 8.35666" fill="black"/>
<path fill-rule="evenodd" clip-rule="evenodd" d="M5.95239 8.25603L6.71757 7.81299C6.919 8.14195 7.18079 8.38358 7.64393 8.38358C8.03331 8.38358 8.28162 8.1889 8.28162 7.92039C8.28162 7.59818 8.02655 7.48406 7.59693 7.29617L7.36206 7.19541C6.68404 6.90682 6.23428 6.54434 6.23428 5.77909C6.23428 5.07426 6.77128 4.53723 7.61039 4.53723C8.20782 4.53723 8.63742 4.74534 8.94617 5.28907L8.21449 5.75893C8.05338 5.47031 7.8789 5.35622 7.61041 5.35622C7.33519 5.35622 7.16065 5.53074 7.16065 5.75893C7.16065 6.04087 7.33519 6.15501 7.7379 6.32955L7.97282 6.43023C8.77163 6.7726 9.22139 7.12161 9.22139 7.90696C9.22139 8.7528 8.55685 9.21593 7.66409 9.21593C6.79146 9.21593 6.22758 8.79977 5.95241 8.25603" fill="black"/>
</g>
<defs>
<clipPath id="clip0_39_249">
<rect width="10" height="10" fill="white"/>
</clipPath>
</defs>
</svg>
