<svg width="10" height="10" viewBox="0 0 10 10" fill="none" xmlns="http://www.w3.org/2000/svg">
<g clip-path="url(#clip0_39_362)">
<path d="M8.95651 4.9236C8.95651 4.40954 8.53979 3.99282 8.0257 3.99282C7.99265 3.99282 7.96003 3.99459 7.92788 3.99795L9.20632 0.227325H3.77336L5.05003 3.99468C5.0313 3.99354 5.01247 3.99282 4.99347 3.99282C4.4794 3.99282 4.06266 4.40954 4.06266 4.9236C4.06266 5.33914 4.33498 5.69091 4.71083 5.8106C4.51232 6.15446 4.26253 6.46416 3.97894 6.73172C3.59331 7.09552 3.15197 7.37137 2.67462 7.54136C2.10632 7.2494 1.83793 6.60012 2.08011 6.03082C2.10743 5.96653 2.13537 5.90137 2.16204 5.83649C2.57378 5.7404 2.88056 5.37131 2.88056 4.93028C2.88056 4.41622 2.46384 3.9995 1.94975 3.9995C1.43569 3.9995 1.01895 4.41622 1.01895 4.93028C1.01895 5.24552 1.17581 5.52396 1.41555 5.69234C1.18517 6.21689 0.846517 6.76585 0.741012 7.4021C0.614571 8.16462 0.740603 8.974 1.40009 9.4311C2.93599 10.4956 4.60319 8.77118 6.36102 8.33771C6.9981 8.1806 7.69739 8.20592 8.25867 7.88084C8.68017 7.63671 8.95803 7.23215 9.03689 6.77794C9.1148 6.32923 9.00123 5.88248 8.74002 5.52023C8.87512 5.35867 8.95651 5.15068 8.95651 4.9236Z" fill="#99425B"/>
<path d="M8.81292 6.73903C8.74444 7.13336 8.5009 7.47781 8.14472 7.68411C7.8127 7.87641 7.41483 7.93381 6.99358 7.99455C6.76791 8.02709 6.53456 8.06075 6.30659 8.11697C5.70382 8.2656 5.11999 8.55561 4.55539 8.83604C3.42549 9.39728 2.44969 9.8819 1.52959 9.24424C0.855622 8.77712 0.886743 7.91287 0.965264 7.43928C1.03803 7.0005 1.23476 6.59642 1.42502 6.20562C1.45789 6.13805 1.4901 6.07174 1.52145 6.006C1.61575 6.04367 1.71605 6.06938 1.8206 6.08106C1.62693 6.7202 1.93149 7.41515 2.57074 7.74356L2.65822 7.7885L2.75088 7.75552C3.25624 7.57554 3.7219 7.28674 4.13494 6.89704C4.40192 6.64516 4.63148 6.3665 4.82014 6.06874C4.8767 6.07727 4.93456 6.08174 4.99346 6.08174C5.58015 6.08174 6.06601 5.64313 6.14118 5.07664C6.38134 5.06785 6.63642 5.06778 6.87796 5.07655C6.9531 5.64309 7.43897 6.08174 8.02569 6.08174C8.271 6.08174 8.49856 6.00486 8.68602 5.87426C8.81617 6.14067 8.86475 6.44043 8.81292 6.73903ZM1.94974 4.22681C2.33766 4.22681 2.65322 4.54239 2.65322 4.93029C2.65322 5.06962 2.61235 5.19954 2.54215 5.30896C2.42518 5.49132 2.22647 5.61633 1.99807 5.63192C1.98209 5.63302 1.966 5.63377 1.94974 5.63377C1.86331 5.63377 1.7805 5.61799 1.70393 5.58937C1.54905 5.5314 1.41999 5.42028 1.33881 5.27838C1.28005 5.17565 1.24627 5.05687 1.24627 4.93029C1.24627 4.54239 1.56185 4.22681 1.94974 4.22681ZM4.28998 4.92361C4.28998 4.57117 4.5505 4.27853 4.88904 4.22793C4.92312 4.22281 4.95799 4.22013 4.99346 4.22013C5.21897 4.22013 5.41975 4.32698 5.54853 4.49252C5.58054 4.53364 5.6083 4.57827 5.63064 4.62592C5.67309 4.71639 5.69693 4.81724 5.69693 4.92361C5.69693 4.97985 5.69011 5.03452 5.67759 5.08697C5.60902 5.37397 5.3643 5.59332 5.06443 5.62351C5.04111 5.62585 5.01742 5.62708 4.99346 5.62708C4.85301 5.62708 4.72216 5.58555 4.6122 5.51435C4.41851 5.38888 4.28998 5.17103 4.28998 4.92361ZM7.22603 4.0871C7.07533 4.23129 6.96326 4.41552 6.90745 4.62269C6.64695 4.61291 6.37072 4.61291 6.11172 4.62269C6.05223 4.40188 5.92883 4.20708 5.76286 4.05911L6.49077 2.58721L7.22603 4.0871ZM4.09043 0.454662H8.88918L7.75578 3.79748C7.70665 3.80927 7.65873 3.82412 7.61222 3.84196L6.49257 1.55792L5.36976 3.82832C5.32122 3.81162 5.27121 3.79816 5.22002 3.78795L4.09043 0.454662ZM8.72917 4.92361C8.72917 4.99415 8.71862 5.06223 8.69923 5.12652C8.65303 5.27947 8.5561 5.41053 8.42809 5.50014C8.31397 5.58002 8.17525 5.62708 8.02569 5.62708C7.70088 5.62708 7.42688 5.40573 7.34633 5.10597C7.33069 5.04777 7.32221 4.98667 7.32221 4.92361C7.32221 4.82744 7.34165 4.73576 7.37673 4.65222C7.3948 4.60916 7.41735 4.56847 7.44325 4.53023C7.56985 4.34339 7.78349 4.22013 8.02569 4.22013C8.0479 4.22013 8.06982 4.22129 8.0915 4.22331C8.44866 4.25659 8.72917 4.5579 8.72917 4.92361ZM9.18383 4.92361C9.18383 4.35819 8.77645 3.88643 8.23988 3.78563L9.52342 0H3.45629L4.74178 3.79334C4.22383 3.90859 3.83532 4.37144 3.83532 4.92361C3.83532 5.33821 4.05444 5.70242 4.38282 5.90706C4.22487 6.1424 4.03755 6.36384 3.82293 6.56635C3.4825 6.8875 3.10327 7.13104 2.69441 7.29128C2.2826 7.0326 2.10851 6.54477 2.28931 6.11978L2.30347 6.08647C2.31234 6.06567 2.3212 6.04483 2.33005 6.02398C2.78237 5.86621 3.10788 5.43569 3.10788 4.93029C3.10788 4.29167 2.58834 3.77215 1.94974 3.77215C1.31115 3.77215 0.791605 4.29167 0.791605 4.93029C0.791605 5.25262 0.924094 5.54452 1.13733 5.75468C1.09868 5.83705 1.05799 5.92082 1.01623 6.00659C0.821272 6.40703 0.600306 6.8609 0.516739 7.36489C0.350765 8.36583 0.618493 9.16597 1.27059 9.61793C1.66631 9.89218 2.06814 10 2.47254 10C3.23401 10 4.00427 9.61745 4.75765 9.24324C5.30022 8.97376 5.86127 8.69508 6.41546 8.5584C6.62165 8.50755 6.83384 8.47695 7.05849 8.44456C7.50394 8.38029 7.96458 8.31386 8.3726 8.07755C8.84556 7.8036 9.16932 7.34407 9.26087 6.81682C9.33946 6.36418 9.24489 5.91081 9.01422 5.52635C9.12175 5.35065 9.18383 5.14425 9.18383 4.92361Z" fill="white"/>
</g>
<defs>
<clipPath id="clip0_39_362">
<rect width="10" height="10" fill="white"/>
</clipPath>
</defs>
</svg>
