<svg width="17" height="14" viewBox="0 0 17 14" fill="none" xmlns="http://www.w3.org/2000/svg">
<rect width="17" height="14" fill="#080616"/>
<path d="M7.884 5.166C7.8 5.166 7.734 5.178 7.686 5.202C7.642 5.226 7.61 5.28 7.59 5.364C7.574 5.448 7.566 5.582 7.566 5.766V6.354C7.566 6.506 7.542 6.638 7.494 6.75C7.45 6.858 7.398 6.946 7.338 7.014C7.278 7.082 7.222 7.134 7.17 7.17C7.214 7.202 7.266 7.252 7.326 7.32C7.39 7.384 7.446 7.464 7.494 7.56C7.542 7.652 7.566 7.756 7.566 7.872V8.592C7.566 8.772 7.574 8.904 7.59 8.988C7.61 9.072 7.642 9.126 7.686 9.15C7.734 9.174 7.8 9.186 7.884 9.186H8.106V9.918H7.632C7.52 9.918 7.408 9.916 7.296 9.912C7.188 9.908 7.088 9.886 6.996 9.846C6.904 9.81 6.83 9.74 6.774 9.636C6.722 9.536 6.696 9.39 6.696 9.198V8.208C6.696 8.088 6.678 7.976 6.642 7.872C6.606 7.764 6.552 7.676 6.48 7.608C6.408 7.54 6.318 7.506 6.21 7.506V6.81C6.318 6.806 6.408 6.772 6.48 6.708C6.552 6.64 6.606 6.554 6.642 6.45C6.678 6.342 6.696 6.228 6.696 6.108V5.16C6.696 4.968 6.722 4.822 6.774 4.722C6.826 4.622 6.896 4.552 6.984 4.512C7.076 4.472 7.178 4.45 7.29 4.446C7.402 4.438 7.516 4.434 7.632 4.434H8.106V5.166H7.884ZM8.9302 9.186C9.0142 9.186 9.0782 9.174 9.1222 9.15C9.1702 9.126 9.2022 9.072 9.2182 8.988C9.2382 8.9 9.2482 8.766 9.2482 8.586V7.998C9.2482 7.842 9.2702 7.71 9.3142 7.602C9.3622 7.494 9.4162 7.406 9.4762 7.338C9.5402 7.266 9.5962 7.214 9.6442 7.182C9.6042 7.146 9.5522 7.096 9.4882 7.032C9.4242 6.968 9.3682 6.89 9.3202 6.798C9.2722 6.702 9.2482 6.596 9.2482 6.48V5.76C9.2482 5.576 9.2382 5.444 9.2182 5.364C9.2022 5.28 9.1702 5.226 9.1222 5.202C9.0782 5.178 9.0142 5.166 8.9302 5.166H8.7082V4.434H9.1822C9.2942 4.434 9.4042 4.436 9.5122 4.44C9.6242 4.444 9.7262 4.466 9.8182 4.506C9.9102 4.542 9.9822 4.612 10.0342 4.716C10.0902 4.816 10.1182 4.962 10.1182 5.154V6.144C10.1182 6.232 10.1282 6.318 10.1482 6.402C10.1682 6.486 10.1982 6.562 10.2382 6.63C10.2782 6.694 10.3282 6.746 10.3882 6.786C10.4522 6.826 10.5242 6.846 10.6042 6.846V7.542C10.5242 7.542 10.4522 7.562 10.3882 7.602C10.3282 7.642 10.2782 7.694 10.2382 7.758C10.1982 7.822 10.1682 7.896 10.1482 7.98C10.1282 8.064 10.1182 8.152 10.1182 8.244V9.192C10.1182 9.384 10.0922 9.53 10.0402 9.63C9.9882 9.73 9.9162 9.8 9.8242 9.84C9.7362 9.88 9.6362 9.902 9.5242 9.906C9.4122 9.914 9.2982 9.918 9.1822 9.918H8.7082V9.186H8.9302Z" fill="white"/>
<path d="M0 8V0H9L0 8Z" fill="#512FAC"/>
<path d="M17 6V14L8 14L17 6Z" fill="#512FAC"/>
</svg>
