<svg width="10" height="10" viewBox="0 0 10 10" fill="none" xmlns="http://www.w3.org/2000/svg">
<path d="M4.67253 0.00269104C4.65103 0.00464578 4.5826 0.0114874 4.52102 0.0163743C3.10068 0.14441 1.77028 0.910671 0.927664 2.08841C0.458456 2.74325 0.158358 3.48605 0.0449658 4.27284C0.00488759 4.54748 0 4.6286 0 5.00098C0 5.37336 0.00488759 5.45448 0.0449658 5.72912C0.316716 7.60666 1.65298 9.18414 3.4653 9.76861C3.78983 9.87319 4.13196 9.94453 4.52102 9.98754C4.67253 10.0042 5.32747 10.0042 5.47898 9.98754C6.15054 9.91326 6.71945 9.7471 7.28055 9.46073C7.36657 9.41675 7.38319 9.40502 7.37146 9.39525C7.36364 9.38939 6.99707 8.89777 6.55719 8.30352L5.75758 7.22353L4.75562 5.74085C4.2043 4.92572 3.75073 4.25915 3.74682 4.25915C3.74291 4.25817 3.739 4.91692 3.73705 5.7213C3.73412 7.1297 3.73314 7.18639 3.71554 7.21962C3.69013 7.26751 3.67058 7.28706 3.62952 7.30856C3.59824 7.3242 3.57087 7.32713 3.42326 7.32713H3.25415L3.20919 7.29878C3.17986 7.28021 3.15836 7.25578 3.14369 7.22744L3.12317 7.18345L3.12512 5.22382L3.12805 3.26321L3.15836 3.22509C3.174 3.20457 3.20723 3.17818 3.23069 3.16547C3.27077 3.14592 3.28641 3.14397 3.45552 3.14397C3.65494 3.14397 3.68817 3.15179 3.73998 3.20848C3.75464 3.22411 4.29717 4.0412 4.94624 5.02541C5.59531 6.00963 6.48289 7.35352 6.91887 8.01324L7.71065 9.21248L7.75073 9.18609C8.10557 8.95543 8.48094 8.62703 8.7781 8.28495C9.41056 7.55877 9.81818 6.67326 9.95503 5.72912C9.99511 5.45448 10 5.37336 10 5.00098C10 4.6286 9.99511 4.54748 9.95503 4.27284C9.68328 2.3953 8.34702 0.81782 6.5347 0.233351C6.21505 0.12975 5.87488 0.0584013 5.49365 0.0153969C5.3998 0.00562316 4.75367 -0.00512795 4.67253 0.00269104ZM6.71945 3.02668C6.76637 3.05014 6.8045 3.0951 6.81818 3.14201C6.826 3.16743 6.82796 3.71085 6.826 4.93549L6.82307 6.69281L6.5132 6.21781L6.20235 5.74281V4.46538C6.20235 3.6395 6.20626 3.17525 6.21212 3.15277C6.22776 3.09803 6.26197 3.05503 6.3089 3.02962C6.34897 3.00909 6.36364 3.00714 6.51711 3.00714C6.66178 3.00714 6.68719 3.00909 6.71945 3.02668Z" fill="black"/>
</svg>
