<svg width="10" height="10" viewBox="0 0 10 10" fill="none" xmlns="http://www.w3.org/2000/svg">
<g clip-path="url(#clip0_39_328)">
<path d="M8.22201 3.43061C8.11827 3.3949 8.01078 3.36112 7.9001 3.32917C7.91829 3.25493 7.93498 3.18164 7.94983 3.10961C8.19351 1.92675 8.03418 0.973838 7.49013 0.660097C6.96845 0.359262 6.11529 0.672931 5.25363 1.4228C5.17077 1.49491 5.08768 1.57125 5.00463 1.65127C4.94929 1.59833 4.89404 1.54717 4.83893 1.49824C3.93589 0.696427 3.03073 0.358532 2.48721 0.67318C1.96603 0.974888 1.81169 1.87072 2.03104 2.99172C2.05222 3.1 2.07698 3.21057 2.10498 3.32299C1.97687 3.35936 1.8532 3.39813 1.73486 3.43937C0.676146 3.80848 0 4.38698 0 4.98703C0 5.60677 0.725843 6.22838 1.82858 6.60529C1.9156 6.63503 2.0059 6.66316 2.09896 6.68986C2.06875 6.81145 2.04248 6.9306 2.02043 7.04681C1.81128 8.14836 1.97461 9.02303 2.4944 9.32283C3.0313 9.63244 3.93236 9.3142 4.80977 8.54724C4.87912 8.48661 4.94872 8.42232 5.01844 8.35493C5.10881 8.44195 5.19904 8.52431 5.28878 8.60156C6.13866 9.3329 6.97805 9.62822 7.49736 9.32758C8.03372 9.01708 8.20803 8.07748 7.98173 6.9343C7.96444 6.84699 7.94433 6.7578 7.92174 6.66702C7.98502 6.64831 8.04714 6.629 8.10771 6.60892C9.25411 6.22909 10 5.61505 10 4.98703C10 4.38481 9.30205 3.80241 8.22201 3.43061ZM7.97336 6.20342C7.91868 6.22152 7.86257 6.23902 7.8054 6.25598C7.67884 5.85533 7.50804 5.42929 7.29901 4.98911C7.49848 4.55942 7.66268 4.13883 7.7857 3.74077C7.88799 3.77037 7.98728 3.8016 8.08295 3.83454C9.00833 4.15311 9.5728 4.62411 9.5728 4.98703C9.5728 5.37361 8.96319 5.87544 7.97336 6.20342ZM7.56265 7.01727C7.66272 7.52276 7.67701 7.97979 7.61072 8.33707C7.55117 8.65811 7.43139 8.87215 7.2833 8.95788C6.96815 9.14029 6.29421 8.90318 5.56739 8.27773C5.48407 8.20603 5.40014 8.12947 5.31595 8.04845C5.59772 7.74028 5.87933 7.38202 6.15418 6.98414C6.63761 6.94124 7.09433 6.87111 7.50852 6.77537C7.52892 6.85765 7.54704 6.93836 7.56265 7.01727ZM3.40923 8.92635C3.10132 9.03509 2.8561 9.03821 2.70786 8.95273C2.39243 8.7708 2.26129 8.06853 2.44017 7.12649C2.46065 7.0186 2.48504 6.90778 2.51315 6.7945C2.92279 6.88508 3.37617 6.95027 3.86076 6.98955C4.13745 7.37889 4.4272 7.73675 4.71919 8.0501C4.65539 8.11169 4.59185 8.17032 4.52866 8.22557C4.14068 8.56471 3.75187 8.80533 3.40923 8.92635ZM1.96674 6.20105C1.47913 6.03439 1.07645 5.81779 0.800424 5.58142C0.552401 5.36902 0.427179 5.15814 0.427179 4.98703C0.427179 4.6229 0.970057 4.15845 1.87548 3.84277C1.98534 3.80446 2.10035 3.76836 2.2197 3.73445C2.34483 4.1415 2.50898 4.56708 2.70707 4.99743C2.50642 5.43416 2.33993 5.86652 2.21357 6.27834C2.12849 6.25388 2.04606 6.22814 1.96674 6.20105ZM2.45028 2.90968C2.26235 1.94923 2.38716 1.22471 2.70124 1.0429C3.03578 0.849221 3.77557 1.12537 4.55527 1.81769C4.60511 1.86194 4.65515 1.90826 4.70532 1.95618C4.41478 2.26815 4.12768 2.62333 3.85344 3.01037C3.38313 3.05397 2.93294 3.12399 2.51902 3.21776C2.493 3.11308 2.46994 3.01023 2.45028 2.90968ZM6.76382 3.97481C6.66488 3.80389 6.56329 3.63702 6.45973 3.4747C6.77879 3.51504 7.08449 3.56858 7.37156 3.6341C7.28538 3.91032 7.17796 4.19912 7.05151 4.49519C6.9608 4.32297 6.86486 4.14933 6.76382 3.97481ZM5.00477 2.26148C5.20181 2.47495 5.39914 2.71329 5.59323 2.97189C5.39765 2.96265 5.19964 2.95785 5 2.95785C4.80224 2.95785 4.6057 2.96255 4.41132 2.97162C4.60561 2.71543 4.80465 2.47741 5.00477 2.26148ZM3.23445 3.97776C3.13561 4.14916 3.04145 4.32185 2.95216 4.49486C2.82776 4.19983 2.72133 3.90971 2.6344 3.62958C2.91971 3.56573 3.22396 3.51352 3.541 3.47395C3.43598 3.63777 3.33356 3.80587 3.23445 3.97773V3.97776ZM3.55013 6.53058C3.22258 6.49404 2.91375 6.44452 2.62851 6.38243C2.71683 6.0973 2.8256 5.80098 2.95264 5.4996C3.04216 5.67249 3.13669 5.84525 3.23614 6.01702H3.23616C3.33746 6.19201 3.4424 6.36342 3.55013 6.53058ZM5.01659 7.7427C4.81412 7.52424 4.61216 7.28259 4.41492 7.02266C4.60639 7.03017 4.8016 7.03402 5 7.03402C5.20383 7.03402 5.40532 7.02942 5.60365 7.02059C5.40892 7.28521 5.2123 7.52723 5.01659 7.7427ZM7.05558 5.48423C7.18924 5.78888 7.30191 6.08364 7.39138 6.36392C7.10143 6.43007 6.78839 6.48334 6.45856 6.52293C6.56237 6.35842 6.66484 6.18868 6.76553 6.01408C6.8674 5.83744 6.96413 5.66052 7.05558 5.48423ZM6.39549 5.80066C6.23917 6.0717 6.07869 6.33044 5.91577 6.57467C5.61903 6.59589 5.31246 6.60682 5 6.60682C4.68881 6.60682 4.3861 6.59715 4.09461 6.57823C3.92512 6.3308 3.76115 6.07129 3.60583 5.80299H3.60586C3.45095 5.53543 3.30837 5.2656 3.17918 4.99728C3.30834 4.72835 3.45054 4.45821 3.60456 4.19113L3.60453 4.19118C3.75896 3.92338 3.92149 3.66514 4.08941 3.41925C4.38681 3.39677 4.69178 3.38504 4.99998 3.38504H5C5.30959 3.38504 5.61495 3.39686 5.91226 3.41954C6.07762 3.66363 6.23905 3.92103 6.39409 4.18887C6.55088 4.45971 6.69492 4.72804 6.82518 4.99121C6.69531 5.25891 6.5516 5.52994 6.39549 5.80066ZM7.27675 1.03019C7.61161 1.2233 7.74184 2.00212 7.53144 3.02339C7.51802 3.08855 7.50291 3.15493 7.4865 3.22219C7.07162 3.12646 6.6211 3.05523 6.14943 3.01098C5.87465 2.61968 5.58991 2.26395 5.30409 1.95598C5.38093 1.88206 5.45767 1.81157 5.53409 1.74505C6.27235 1.10257 6.96236 0.848901 7.27675 1.03019ZM5 4.09407C5.49316 4.09407 5.89297 4.49385 5.89297 4.98703C5.89297 5.48019 5.49316 5.88 5 5.88C4.50684 5.88 4.10703 5.48019 4.10703 4.98703C4.10703 4.49385 4.50684 4.09407 5 4.09407Z" fill="#00D8FF"/>
</g>
<defs>
<clipPath id="clip0_39_328">
<rect width="10" height="10" fill="white"/>
</clipPath>
</defs>
</svg>
