<svg width="8" height="7" viewBox="0 0 8 7" fill="none" xmlns="http://www.w3.org/2000/svg">
<path fill-rule="evenodd" clip-rule="evenodd" d="M2.32969 0.705674C2.32969 1.09795 2.03441 1.41184 1.5603 1.41184H1.55161C1.09511 1.41184 0.799999 1.09795 0.799999 0.705674C0.799999 0.305101 1.1041 0 1.56926 0C2.03441 0 2.32086 0.305101 2.32969 0.705674ZM2.24013 1.96946V6.05489H0.880404V1.96946H2.24013ZM7.14379 6.05489L7.14385 3.71243C7.14385 2.45756 6.47305 1.87353 5.57828 1.87353C4.85636 1.87353 4.53314 2.27006 4.35267 2.54824V1.96957H2.99277C3.0107 2.35293 2.99277 6.055 2.99277 6.055H4.35267V3.77336C4.35267 3.65126 4.36149 3.52946 4.39745 3.44204C4.49572 3.19811 4.71947 2.94556 5.09513 2.94556C5.58735 2.94556 5.78411 3.32018 5.78411 3.86918V6.05489H7.14379Z" fill="white"/>
</svg>
