<svg width="10" height="10" viewBox="0 0 10 10" fill="none" xmlns="http://www.w3.org/2000/svg">
<path d="M5 1.99219C3.66667 1.99219 2.83333 2.65885 2.5 3.99219C3 3.32552 3.58333 3.07552 4.25 3.24219C4.63037 3.33728 4.90224 3.61322 5.20317 3.91869C5.69339 4.41628 6.26076 4.99219 7.5 4.99219C8.83333 4.99219 9.66667 4.32552 10 2.99219C9.5 3.65885 8.91667 3.90885 8.25 3.74219C7.86963 3.64709 7.59776 3.37115 7.29683 3.06569C6.80661 2.56809 6.23924 1.99219 5 1.99219ZM2.5 4.99219C1.16667 4.99219 0.333333 5.65885 0 6.99219C0.5 6.32552 1.08333 6.07552 1.75 6.24219C2.13037 6.33728 2.40224 6.61322 2.70317 6.91869C3.19339 7.41628 3.76076 7.99219 5 7.99219C6.33333 7.99219 7.16667 7.32552 7.5 5.99219C7 6.65885 6.41667 6.90885 5.75 6.74219C5.36963 6.64709 5.09776 6.37115 4.79683 6.06569C4.30661 5.56809 3.73924 4.99219 2.5 4.99219Z" fill="url(#paint0_linear_39_171)"/>
<defs>
<linearGradient id="paint0_linear_39_171" x1="-0.277778" y1="3.91219" x2="8.35886" y2="8.89187" gradientUnits="userSpaceOnUse">
<stop stop-color="#2298BD"/>
<stop offset="1" stop-color="#0ED7B5"/>
</linearGradient>
</defs>
</svg>
