<svg width="10" height="10" viewBox="0 0 10 10" fill="none" xmlns="http://www.w3.org/2000/svg">
<g clip-path="url(#clip0_39_267)">
<rect width="10" height="10" fill="#3178C6"/>
<path d="M0.78125 0H9.21875C9.65022 0 10 0.349778 10 0.78125V9.21875C10 9.65022 9.65022 10 9.21875 10H0.78125C0.349778 10 0 9.65022 0 9.21875V0.78125C0 0.349778 0.349778 0 0.78125 0Z" fill="#3178C6"/>
<path d="M5.87961 7.83105V8.90996C6.05508 8.99988 6.26262 9.0673 6.50219 9.11227C6.74176 9.15723 6.99426 9.17969 7.25973 9.17969C7.5184 9.17969 7.76418 9.15496 7.99699 9.10551C8.2298 9.05605 8.43398 8.97457 8.60941 8.86109C8.78488 8.74758 8.92379 8.59922 9.02617 8.41602C9.12852 8.23285 9.17969 8.00641 9.17969 7.73668C9.17969 7.54113 9.15043 7.36973 9.09195 7.2225C9.03348 7.07527 8.9491 6.94434 8.83887 6.82973C8.72867 6.71508 8.59648 6.61227 8.44242 6.52121C8.28832 6.4302 8.11453 6.34422 7.92105 6.26332C7.77934 6.20484 7.65227 6.14812 7.53977 6.09305C7.4273 6.03797 7.33168 5.9818 7.25297 5.92445C7.17422 5.86715 7.11348 5.80645 7.07074 5.74238C7.02801 5.67832 7.00664 5.60586 7.00664 5.52492C7.00664 5.45074 7.02574 5.38391 7.06398 5.32434C7.10223 5.26477 7.15625 5.21363 7.22598 5.17094C7.2957 5.1282 7.38117 5.09508 7.48242 5.07145C7.58363 5.04785 7.69613 5.03605 7.81984 5.03605C7.90984 5.03605 8.00488 5.04281 8.10496 5.05629C8.20508 5.06977 8.30574 5.09055 8.40699 5.11867C8.5082 5.14676 8.6066 5.18215 8.70223 5.22488C8.79781 5.26758 8.88613 5.31703 8.96711 5.3732V4.36512C8.80289 4.30219 8.62348 4.25555 8.42891 4.2252C8.23434 4.19484 8.01105 4.17969 7.7591 4.17969C7.50266 4.17969 7.25973 4.20723 7.03027 4.2623C6.80082 4.31734 6.59891 4.40332 6.42457 4.5202C6.25023 4.63711 6.11246 4.78602 6.01121 4.96695C5.91 5.14789 5.85938 5.36422 5.85938 5.61598C5.85938 5.93738 5.95215 6.2116 6.13777 6.43863C6.32336 6.66562 6.60508 6.85781 6.98301 7.01516C7.13148 7.07586 7.26984 7.13539 7.39805 7.19387C7.52629 7.2523 7.63707 7.31297 7.73043 7.3759C7.82379 7.43883 7.89746 7.50738 7.95145 7.58156C8.00543 7.65574 8.03242 7.74004 8.03242 7.83445C8.03242 7.9041 8.01555 7.96875 7.9818 8.02832C7.94809 8.08785 7.89688 8.13957 7.82828 8.1834C7.75969 8.22723 7.67418 8.26148 7.57184 8.28621C7.46949 8.31094 7.34969 8.32332 7.21246 8.32332C6.97852 8.32332 6.74684 8.2823 6.51738 8.20023C6.28789 8.1182 6.07531 7.99516 5.87961 7.83105ZM4.08133 5.14617H5.46875V4.25781H1.60156V5.14617H2.98221V9.10156H4.08133V5.14617Z" fill="white"/>
</g>
<defs>
<clipPath id="clip0_39_267">
<rect width="10" height="10" fill="white"/>
</clipPath>
</defs>
</svg>
