<svg width="9" height="9" viewBox="0 0 9 9" fill="none" xmlns="http://www.w3.org/2000/svg">
<path d="M-1.52588e-05 9L0.632608 6.68888C0.242234 6.01237 0.0371097 5.2455 0.0374847 4.45913C0.0386097 2.00062 2.03923 0 4.49735 0C5.69022 0.000375 6.80997 0.465 7.65222 1.308C8.49409 2.151 8.95759 3.2715 8.95722 4.46325C8.95609 6.92213 6.95547 8.92275 4.49735 8.92275C3.7511 8.92238 3.01573 8.73525 2.36435 8.37975L-1.52588e-05 9ZM2.47385 7.57238C3.10235 7.9455 3.70235 8.169 4.49585 8.16937C6.53885 8.16937 8.20309 6.50663 8.20422 4.4625C8.20497 2.41425 6.54859 0.75375 4.49885 0.753C2.45435 0.753 0.791233 2.41575 0.790483 4.4595C0.790108 5.29388 1.03461 5.91862 1.44523 6.57225L1.07061 7.94025L2.47385 7.57238ZM6.74397 5.52338C6.71622 5.47687 6.64197 5.44912 6.53022 5.39325C6.41885 5.33738 5.87097 5.06775 5.7686 5.03062C5.6666 4.9935 5.59235 4.97475 5.51772 5.0865C5.44347 5.19788 5.22972 5.44912 5.16485 5.52338C5.09997 5.59763 5.03472 5.607 4.92335 5.55113C4.81197 5.49525 4.45272 5.37787 4.0271 4.998C3.69598 4.7025 3.4721 4.33763 3.40723 4.22587C3.34235 4.1145 3.40048 4.05412 3.45598 3.99863C3.50623 3.94875 3.56735 3.8685 3.62323 3.80325C3.67985 3.73875 3.69823 3.69225 3.73573 3.61763C3.77285 3.54338 3.75448 3.47813 3.72635 3.42225C3.69823 3.36675 3.47548 2.81813 3.38285 2.595C3.2921 2.37788 3.20023 2.40712 3.13198 2.40375L2.91823 2.4C2.84398 2.4 2.72323 2.42775 2.62123 2.5395C2.51923 2.65125 2.23123 2.9205 2.23123 3.46913C2.23123 4.01775 2.6306 4.54763 2.6861 4.62187C2.74198 4.69613 3.47173 5.82188 4.5896 6.3045C4.85547 6.41925 5.06322 6.48787 5.22485 6.53925C5.49185 6.624 5.73485 6.612 5.92685 6.5835C6.14097 6.55162 6.5861 6.31387 6.6791 6.05363C6.7721 5.793 6.7721 5.56988 6.74397 5.52338Z" fill="#25D366"/>
</svg>
