<svg width="10" height="10" viewBox="0 0 10 10" fill="none" xmlns="http://www.w3.org/2000/svg">
<path d="M7.5 7.85832H7.18333C6.85 7.85832 6.53333 7.98748 6.3 8.22081L5.58749 8.92498C5.26249 9.24582 4.73334 9.24582 4.40834 8.92498L3.69583 8.22081C3.4625 7.98748 3.14167 7.85832 2.8125 7.85832H2.5C1.80833 7.85832 1.25 7.30416 1.25 6.62083V2.07498C1.25 1.39165 1.80833 0.837494 2.5 0.837494H7.5C8.19167 0.837494 8.75 1.39165 8.75 2.07498V6.62083C8.75 7.3 8.19167 7.85832 7.5 7.85832Z" stroke="#512FAC" stroke-width="0.5" stroke-miterlimit="10" stroke-linecap="round" stroke-linejoin="round"/>
<path d="M5 4.16666C5.53618 4.16666 5.97084 3.732 5.97084 3.19582C5.97084 2.65964 5.53618 2.22501 5 2.22501C4.46382 2.22501 4.02916 2.65964 4.02916 3.19582C4.02916 3.732 4.46382 4.16666 5 4.16666Z" stroke="#512FAC" stroke-width="0.5" stroke-linecap="round" stroke-linejoin="round"/>
<path d="M6.66667 6.525C6.66667 5.775 5.92083 5.16669 5 5.16669C4.07917 5.16669 3.33333 5.775 3.33333 6.525" stroke="#512FAC" stroke-width="0.5" stroke-linecap="round" stroke-linejoin="round"/>
</svg>
